<?xml version="1.0" encoding="utf-8"?>
<!-- Generator: Adobe Illustrator 22.1.0, SVG Export Plug-In . SVG Version: 6.00 Build 0)  -->
<svg version="1.1" id="Ebene_1" xmlns="http://www.w3.org/2000/svg" xmlns:xlink="http://www.w3.org/1999/xlink" x="0px" y="0px"
	 viewBox="0 0 448 448" style="enable-background:new 0 0 448 448;" xml:space="preserve">
<path d="M216,320.6l58-40.6l-58-40.6V320.6z"/>
<path d="M216,208.6l58-40.6l-58-40.6V208.6z"/>
<path d="M224,0C100.3,0,0,100.3,0,224s100.3,224,224,224s224-100.3,224-224C447.9,100.3,347.7,0.1,224,0z M292.6,273.4
	c2.1,1.5,3.4,3.9,3.4,6.6s-1.3,5.1-3.4,6.6l-80,56c-0.3,0.2-0.6,0.3-1,0.5c-0.3,0.2-0.6,0.3-0.8,0.4c-0.9,0.3-1.8,0.5-2.8,0.6
	c-1.2,0-2.3-0.3-3.4-0.8c-0.3-0.1-0.5-0.4-0.8-0.5c-0.7-0.5-1.4-1-2-1.7c-0.1-0.2-0.3-0.2-0.4-0.4c-0.1-0.2-0.2-0.5-0.3-0.7
	c-0.5-0.9-0.9-2-1-3.1c-0.1-0.3-0.1-0.5-0.2-0.8v-97.1l-35.6,23.7c-3.7,2.5-8.6,1.5-11.1-2.2s-1.5-8.6,2.2-11.1l38-25.3l-38-25.3
	c-3.7-2.5-4.7-7.4-2.2-11.1s7.4-4.7,11.1-2.2l35.5,23.7V112c0-0.3,0.1-0.5,0.2-0.8c0.1-1.1,0.4-2.1,1-3.1c0.1-0.2,0.2-0.5,0.3-0.7
	c0.1-0.2,0.3-0.3,0.5-0.5c0.4-0.4,0.8-0.8,1.2-1.1c0.8-0.6,1.7-1.1,2.6-1.4c0.5-0.2,1.1-0.3,1.6-0.3c0.2-0.1,0.4-0.1,0.7-0.1
	c0.3,0,0.5,0.1,0.8,0.2c1.1,0.1,2.1,0.4,3.1,1c0.2,0.1,0.5,0.2,0.7,0.3l80,56c2.1,1.5,3.4,3.9,3.4,6.6s-1.3,5.1-3.4,6.6L222,224
	L292.6,273.4z"/>
</svg>
