<?xml version="1.0" encoding="utf-8"?>
<!-- Generator: Adobe Illustrator 22.1.0, SVG Export Plug-In . SVG Version: 6.00 Build 0)  -->
<svg version="1.1" id="Ebene_1" xmlns="http://www.w3.org/2000/svg" xmlns:xlink="http://www.w3.org/1999/xlink" x="0px" y="0px"
	 viewBox="0 0 200 50" style="enable-background:new 0 0 200 50;" xml:space="preserve">
<g>
	<path d="M30.7,34.6l0-2.6h-5.8v6.2c0,1.8,0.7,2.7,2.2,2.7c0.9,0,1.6-0.4,1.9-1.1c0.3-0.7,0.5-1.8,0.5-3.4h7.9
		c0,0.4,0.1,0.8,0.1,1.4c0,3.3-0.9,5.9-2.6,7.6c-1.8,1.8-4.4,2.6-8,2.6c-3.3,0-5.9-0.8-7.8-2.3S16,41.9,16,38.9v-7h-3.5V28v-3.4H16
		v-4.5l8.8-3.7v8.3h5.8l0-2.2l6.2,5.5L30.7,34.6z"/>
	<path d="M51.4,28c0.9-1.2,1.8-2,2.7-2.6c0.9-0.5,2-0.8,3.3-0.8h4.3l-2.1,7.4h-4.3c-1.5,0-2.5,0.3-3.1,0.9c-0.6,0.6-0.9,1.7-0.9,3.4
		v11.1h-8.8V24.6h8.8V28z"/>
	<path d="M73.2,28c0.9-1.2,1.8-2,2.7-2.6c0.9-0.5,2-0.8,3.3-0.8h4.3l-2.1,7.4h-4.3c-1.5,0-2.5,0.3-3.1,0.9s-0.9,1.7-0.9,3.4v11.1
		h-8.8V24.6h8.8V28z"/>
	<path d="M94.9,28c0.9-1.2,1.8-2,2.7-2.6c0.9-0.5,2-0.8,3.3-0.8h4.3l-2.1,7.4h-4.3c-1.5,0-2.5,0.3-3.1,0.9c-0.6,0.6-0.9,1.7-0.9,3.4
		v11.1h-8.8V24.6h8.8V28z"/>
	<path d="M118.8,24.1c9,0,13.6,4,13.6,11.9S127.9,48,118.8,48s-13.6-4-13.6-11.9S109.8,24.1,118.8,24.1z M118.8,40.5
		c1.5,0,2.6-0.3,3.2-1c0.6-0.7,0.9-1.8,0.9-3.4s-0.3-2.8-0.9-3.4c-0.6-0.7-1.7-1-3.2-1c-1.5,0-2.6,0.3-3.2,1
		c-0.6,0.7-0.9,1.8-0.9,3.4s0.3,2.8,0.9,3.4C116.3,40.2,117.3,40.5,118.8,40.5z"/>
	<path d="M163.5,5.4c0.2,0.3-4.4,2.8-4.3,3.2c1.5,3.1,2.2,6.5,2.2,10.2c0,2.3-0.3,4.7-0.9,7.2s-1.3,4.7-2.1,6.7
		c-0.8,1.9-1.7,4.3-2.8,7.2s-2,5.4-2.6,7.6h-12l-7.1-22.9h9.5l4.1,15.5c1.4-3.7,2.6-7.1,3.6-10s1.5-6,1.5-9c0-3.4-0.4-5.8-1.6-8.4
		c-0.2-0.4-3.2,2.7-3.4,2.3c0,0,2.7-11.9,3.5-12.4C151.9,2,163.5,5.4,163.5,5.4z"/>
	<path d="M186.8,39.8v6.5c-3.3,1.1-7,1.7-11,1.7c-4.1,0-7.2-0.6-9.4-1.8c-2.2-1.2-3.3-3-3.3-5.3c0-2.3,1.3-3.9,3.8-5
		c-1.3-0.5-2.3-1.1-2.9-1.8c-0.6-0.7-0.9-1.6-0.9-2.8c0-2.3,1.1-4,3.3-5.2c2.2-1.2,5.4-1.8,9.7-1.8c3.5,0,7,0.4,10.5,1.3v6.7
		c-3.1-1.1-6-1.6-8.5-1.6c-2.5,0-3.8,0.6-3.8,1.7c0,1,1.1,1.5,3.2,1.5h5.5v4.5h-5.5c-2.1,0-3.2,0.5-3.2,1.5c0,1.1,1.2,1.7,3.7,1.7
		C180.5,41.4,183.4,40.9,186.8,39.8z"/>
</g>
</svg>
