<?xml version="1.0" encoding="utf-8"?>
<!-- Generator: Adobe Illustrator 22.1.0, SVG Export Plug-In . SVG Version: 6.00 Build 0)  -->
<svg version="1.1" id="Ebene_1" xmlns="http://www.w3.org/2000/svg" xmlns:xlink="http://www.w3.org/1999/xlink" x="0px" y="0px"
	 viewBox="0 0 448 448" style="enable-background:new 0 0 448 448;" xml:space="preserve">
<style type="text/css">
	.st0{fill:#FFFFFF;}
</style>
<path class="st0" d="M224,0C100.3,0,0,100.3,0,224s100.3,224,224,224s224-100.3,224-224C447.9,100.3,347.7,0.1,224,0z M224,385.5
	c-17.4,0-31.5-14.1-31.5-31.5s14.1-31.5,31.5-31.5s31.5,14.1,31.5,31.5S241.4,385.5,224,385.5z M235.7,250.7v36
	c0,6.5-5.3,11.7-11.7,11.7s-11.7-5.3-11.7-11.7v-47c0-6.5,5.3-11.7,11.7-11.7c38.9,0,70.5-31.6,70.5-70.5S262.9,87,224,87
	s-70.5,31.6-70.5,70.5c0,6.5-5.3,11.7-11.7,11.7S130,164,130,157.5c0-50.4,39.7-91.8,90-94c50.3-2.1,93.4,35.8,97.6,86
	C321.9,199.8,285.7,244.4,235.7,250.7z"/>
</svg>
