<?xml version="1.0" encoding="utf-8"?>
<!-- Generator: Adobe Illustrator 22.1.0, SVG Export Plug-In . SVG Version: 6.00 Build 0)  -->
<svg version="1.1" id="Ebene_1" xmlns="http://www.w3.org/2000/svg" xmlns:xlink="http://www.w3.org/1999/xlink" x="0px" y="0px"
	 viewBox="0 0 448 448" style="enable-background:new 0 0 448 448;" xml:space="preserve">
<path d="M224,0C100.3,0,0,100.3,0,224s100.3,224,224,224s224-100.3,224-224C447.9,100.3,347.7,0.1,224,0z M343.9,224.4
	c0,0.4-0.1,0.8-0.2,1.2c-0.1,0.4-0.1,0.8-0.3,1.2c-0.1,0.2-0.2,0.5-0.3,0.7c-0.2,0.3-0.4,0.7-0.6,1c-0.2,0.2-0.2,0.5-0.4,0.8l-80,96
	c-2.9,3.3-7.8,3.7-11.1,0.9c-3.3-2.8-3.8-7.7-1.1-11.1l69.1-82.9H112c-4.4,0-8-3.6-8-8s3.6-8,8-8h206.9l-69.1-82.9
	c-1.9-2.2-2.5-5.2-1.5-8c1-2.7,3.4-4.7,6.2-5.2c2.9-0.5,5.8,0.6,7.6,2.9l80,96c0.2,0.2,0.2,0.5,0.4,0.8c0.2,0.3,0.4,0.6,0.6,1
	c0.1,0.2,0.2,0.4,0.3,0.7c0.1,0.4,0.2,0.8,0.3,1.2c0.1,0.4,0.2,0.8,0.2,1.2c0,0.1,0.1,0.2,0.1,0.4S343.9,224.2,343.9,224.4z"/>
</svg>
